<?xml version="1.0" standalone="no"?><svg xmlns="http://www.w3.org/2000/svg" viewBox="0 0 1440 320"><path fill="#0099ff" fill-opacity="1" d="M0,224L30,213.3C60,203,120,181,180,186.7C240,192,300,224,360,240C420,256,480,256,540,250.7C600,245,660,235,720,192C780,149,840,75,900,42.7C960,11,1020,21,1080,64C1140,107,1200,181,1260,192C1320,203,1380,149,1410,122.7L1440,96L1440,320L1410,320C1380,320,1320,320,1260,320C1200,320,1140,320,1080,320C1020,320,960,320,900,320C840,320,780,320,720,320C660,320,600,320,540,320C480,320,420,320,360,320C300,320,240,320,180,320C120,320,60,320,30,320L0,320Z"></path></svg>